<svg width="180" height="50" viewBox="0 0 180 50" fill="none" xmlns="http://www.w3.org/2000/svg">
<rect width="180" height="50" fill="white"/>
<path d="M63.8687 43.374H57V8.92929C57 6.0017 61.3662 6.00247 62.8677 7.49745L82.8877 30.4182V6.5H89.8947L90 40.384C90 44.1485 84.92 43.9287 83.8887 42.6967L63.8687 19.4559V43.374Z" fill="#F77F00"/>
<path d="M157.5 43H151.5V13H138.5L142.5 7H173.301L170 13H157.5V43Z" fill="#F77F00" stroke="#F77F00"/>
<path d="M115.172 8.72174L94 43H101L118.2 15.25L130.664 37H110.312L106.557 43H141L121.445 8.82695C120.07 6.42449 116.626 6.36672 115.172 8.72174Z" fill="#F77F00" stroke="#F77F00"/>
<path d="M43.3953 6.52977C41.9524 6.07605 40.4253 6 38.9126 6H6.02593L11.311 12.4167H32.5552C38.458 12.4167 43.1772 13.4861 43.1772 18.8333C43.1772 23.6458 38.8244 25.25 33.8966 25.25L43.1772 44.5H52.4715L45.8327 30.0625C57.0538 23.535 54.2259 9.93519 43.3953 6.52977Z" fill="#F77F00"/>
<path d="M27.678 22.0505H11.337L6.02593 28.4583H30.5895L27.678 22.0505Z" fill="#F77F00"/>
<path d="M6 44.5L11.311 38.0833H35.3475L38.2235 44.5H6Z" fill="#F77F00"/>
</svg>
